<?xml version="1.0" standalone="no"?>
<!DOCTYPE svg PUBLIC "-//W3C//DTD SVG 20010904//EN"
 "http://www.w3.org/TR/2001/REC-SVG-20010904/DTD/svg10.dtd">
<svg version="1.0" xmlns="http://www.w3.org/2000/svg"
 width="1500.000000pt" height="1500.000000pt" viewBox="0 0 1500.000000 1500.000000"
 preserveAspectRatio="xMidYMid meet">

<g transform="translate(0.000000,1500.000000) scale(0.100000,-0.100000)"
fill="rgb(180,0,0)" stroke="none">
<path d="M1940 9215 l0 -295 775 0 775 0 0 -1990 0 -1990 300 0 300 0 0 1990
0 1990 602 -2 602 -3 768 -1203 768 -1203 0 -785 0 -784 290 0 290 0 0 778 0
779 705 1108 c388 610 709 1113 715 1119 7 7 10 -616 10 -1887 l0 -1897 296 0
296 0 -7 1990 -8 1990 594 0 c686 0 761 -7 943 -82 153 -63 350 -230 424 -360
150 -262 99 -577 -132 -809 -112 -113 -225 -175 -395 -219 -190 -48 -251 -53
-768 -59 l-491 -6 866 -1222 866 -1223 368 0 369 0 -64 93 c-36 50 -332 482
-660 959 l-595 867 31 5 c18 3 61 7 97 10 96 7 291 61 388 106 126 59 270 160
378 263 321 307 463 708 393 1112 -27 153 -112 356 -210 501 -197 293 -515
506 -902 605 -179 46 -251 48 -1302 49 l-991 0 -744 -1190 c-410 -654 -748
-1190 -752 -1190 -3 0 -145 219 -316 488 -170 268 -503 792 -741 1166 -255
402 -431 688 -431 702 l0 24 -1850 0 -1850 0 0 -295z"/>
<path d="M12562 5506 c-206 -67 -267 -315 -120 -482 101 -115 305 -113 410 4
111 123 115 266 12 381 -82 91 -202 129 -302 97z"/>
</g>
</svg>
